<svg width="73" height="79" viewBox="0 0 73 79" fill="none" xmlns="http://www.w3.org/2000/svg">
<path d="M7.17272 36.8999C6.71185 37.0075 6.4256 37.4682 6.53324 37.9291C6.64087 38.3899 7.10156 38.6762 7.56244 38.5685C8.02331 38.4609 8.30956 38.0002 8.20192 37.5393C8.09428 37.0785 7.63359 36.7922 7.17272 36.8999ZM7.49563 38.2825C7.19368 38.353 6.89777 38.1624 6.8291 37.8683C6.75858 37.5664 6.94923 37.2705 7.24324 37.2018C7.53725 37.1332 7.84111 37.322 7.90977 37.616C7.97844 37.91 7.79758 38.212 7.49563 38.2825Z" fill="#A97424"/>
<path d="M14.8832 41.4257C14.4223 41.5334 14.1361 41.9941 14.2437 42.4549C14.3513 42.9158 14.812 43.2021 15.2729 43.0944C15.7338 42.9868 16.02 42.5261 15.9124 42.0652C15.8047 41.6044 15.344 41.3181 14.8832 41.4257ZM15.2061 42.8084C14.9041 42.8789 14.6082 42.6882 14.5395 42.3942C14.469 42.0923 14.6597 41.7964 14.9537 41.7277C15.2556 41.6572 15.5516 41.8478 15.6202 42.1418C15.6968 42.434 15.508 42.7378 15.2061 42.8084Z" fill="#A97424"/>
<path d="M8.50231 42.916C8.04144 43.0236 7.75519 43.4843 7.86283 43.9452C7.97046 44.4061 8.43115 44.6923 8.89203 44.5847C9.3529 44.477 9.63915 44.0163 9.53151 43.5555C9.42387 43.0946 8.96318 42.8083 8.50231 42.916ZM8.82522 44.2986C8.52327 44.3691 8.22736 44.1785 8.15869 43.8845C8.08817 43.5825 8.27882 43.2866 8.57283 43.2179C8.87478 43.1474 9.17069 43.3381 9.23936 43.6321C9.30802 43.9261 9.12717 44.2281 8.82522 44.2986Z" fill="#A97424"/>
<path d="M6.94887 35.7624L7.59251 35.6121L12.7212 38.5202L13.4844 38.9537L22.2274 32.1858L14.2294 30.1237L6.94887 35.7624ZM18.5306 26.798L22.2408 27.7582L26.5305 28.868L30.7598 25.5927L22.7617 23.5306L18.5306 26.798ZM35.5697 13.6095L39.2798 14.5697L43.5696 15.6795L47.7988 12.4041L39.8008 10.3421L35.5697 13.6095ZM52.2827 1.78751C51.9839 1.40481 51.4308 1.33288 51.056 1.62989L44.1002 7.00843L47.8104 7.96866L52.1001 9.07844L55.7483 6.25723L52.2827 1.78751ZM27.0532 20.1988L30.7634 21.1591L35.0451 22.2707L39.2744 18.9954L31.2764 16.9333L27.0532 20.1988Z" fill="url(#paint0_linear_31_343)"/>
<path d="M16.0284 40.5886L12.6399 38.6734L7.56817 35.7939L6.20144 36.1131C5.73262 36.2225 5.43234 36.6949 5.54369 37.1717L5.71442 37.9027L6.8279 42.6704L7.16195 44.1007C7.3698 44.9906 8.26177 45.5448 9.15173 45.337L15.5563 43.8412C17.1217 43.4756 17.4274 41.3764 16.0284 40.5886ZM8.89226 44.5848C8.43139 44.6924 7.97069 44.4062 7.86306 43.9453C7.75542 43.4844 8.04167 43.0237 8.50254 42.9161C8.96341 42.8085 9.4241 43.0947 9.53174 43.5556C9.63938 44.0164 9.35313 44.4771 8.89226 44.5848ZM7.56264 38.5688C7.10177 38.6764 6.64108 38.3902 6.53344 37.9293C6.4258 37.4684 6.71205 37.0077 7.17292 36.9001C7.6338 36.7924 8.09449 37.0787 8.20212 37.5396C8.30976 38.0004 8.02351 38.4611 7.56264 38.5688ZM15.273 43.0946C14.8121 43.2022 14.3514 42.916 14.2438 42.4551C14.1361 41.9942 14.4224 41.5335 14.8833 41.4259C15.3441 41.3182 15.8048 41.6045 15.9125 42.0654C16.0201 42.5262 15.7339 42.9869 15.273 43.0946Z" fill="#A97424"/>
<path d="M47.6877 45.2948L29.5547 49.5298L31.6128 58.342L49.7458 54.1071L47.6877 45.2948Z" fill="url(#paint1_linear_31_343)"/>
<path d="M60.011 30.2496L58.1691 34.2746L56.5138 37.879L51.2296 39.1131L54.7269 31.4837L49.5222 32.6993L49.532 32.7054L47.6821 36.7322L46.0268 40.3366L40.7426 41.5707L44.2399 33.9413L39.0352 35.1569L39.045 35.163L37.1951 39.1898L35.5398 42.7942L30.2397 44.032L33.737 36.4027L28.5323 37.6182L28.5421 37.6243L26.6922 41.6512L25.0369 45.2555L19.7527 46.4896L23.25 38.8603L16.1938 40.5082C16.8524 40.9242 17.1895 41.6499 17.0766 42.4221C16.9631 43.2279 16.3953 43.8465 15.5928 44.0339L9.18819 45.5297C8.47304 45.6967 7.76284 45.4185 7.33388 44.8734L15.0225 77.7941C15.132 78.263 15.6043 78.5632 16.0811 78.4519L72.0455 65.3815C72.5143 65.272 72.8146 64.7997 72.7032 64.3229L64.5006 29.2011L60.011 30.2496ZM67.2986 60.6999L18.2712 72.1502L18.1765 71.7449L67.2119 60.2928L67.3066 60.698L67.2986 60.6999ZM66.5415 57.4579L17.514 68.9081L17.4193 68.5029L66.4547 57.0507L66.5494 57.456L66.5415 57.4579ZM65.7824 54.2079L16.755 65.6582L16.6603 65.2529L65.6957 53.8008L65.7904 54.206L65.7824 54.2079ZM62.8725 41.7484L48.0928 45.2002L50.1509 54.0124L64.9306 50.5606L65.0253 50.9659L50.2455 54.4177L49.8403 54.5123L31.7072 58.7473L31.302 58.8419L15.9978 62.4162L15.9032 62.0109L31.2153 58.4348L29.1572 49.6226L13.8451 53.1987L13.7504 52.7934L62.7858 41.3413L62.8805 41.7465L62.8725 41.7484Z" fill="url(#paint2_linear_31_343)"/>
<defs>
<linearGradient id="paint0_linear_31_343" x1="1.65259" y1="13.085" x2="33.7649" y2="50.8772" gradientUnits="userSpaceOnUse">
<stop stop-color="#F2CD75"/>
<stop offset="1" stop-color="#A97424"/>
</linearGradient>
<linearGradient id="paint1_linear_31_343" x1="29.5547" y1="49.5298" x2="39.8132" y2="62.1689" gradientUnits="userSpaceOnUse">
<stop stop-color="#F2CD75"/>
<stop offset="1" stop-color="#A97424"/>
</linearGradient>
<linearGradient id="paint2_linear_31_343" x1="6.81982" y1="42.6724" x2="51.2322" y2="86.9289" gradientUnits="userSpaceOnUse">
<stop stop-color="#F2CD75"/>
<stop offset="1" stop-color="#A97424"/>
</linearGradient>
</defs>
</svg>
